<!-- Esta es una imagen SVG de un escudo genérico de fútbol -->
<svg width="512" height="512" viewBox="0 0 512 512" fill="none" xmlns="http://www.w3.org/2000/svg">
  <path d="M256 64C150 64 64 150 64 256C64 362 150 448 256 448C362 448 448 362 448 256C448 150 362 64 256 64Z" fill="#1E293B"/>
  <path d="M256 448C362 448 448 362 448 256C448 150 362 64 256 64" fill="#0F172A"/>
  <path d="M256 112C178 112 112 178 112 256C112 334 178 400 256 400C334 400 400 334 400 256C400 178 334 112 256 112Z" fill="#334155"/>
  <path d="M256 400C334 400 400 334 400 256C400 178 334 112 256 112" fill="#1E293B"/>
  <path d="M256 144C194 144 144 194 144 256C144 318 194 368 256 368C318 368 368 318 368 256C368 194 318 144 256 144Z" fill="#475569"/>
  <path d="M256 368C318 368 368 318 368 256C368 194 318 144 256 144" fill="#334155"/>
  <path d="M256 200C226 200 200 226 200 256C200 286 226 312 256 312C286 312 312 286 312 256C312 226 286 200 256 200Z" fill="#CBD5E1"/>
  <path d="M256 312C286 312 312 286 312 256C312 226 286 200 256 200" fill="#94A3B8"/>
  <path d="M256 232C244 232 232 244 232 256C232 268 244 280 256 280C268 280 280 268 280 256C280 244 268 232 256 232Z" fill="#0EA5E9"/>
  <path d="M256 280C268 280 280 268 280 256C280 244 268 232 256 232" fill="#0284C7"/>
  <path d="M160 140L176 160M172 128L192 144M184 116L208 132M200 108L224 120M216 100L240 112M232 92L256 104M248 88L272 96M264 84L288 92M280 80L304 88M296 80L316 84M312 80L332 84M328 80L344 84M344 80L360 84M360 84L376 88M376 88L392 96M392 96L408 104M408 104L424 116M424 116L440 128M440 128L456 144M456 144L472 160M472 160L484 180M484 180L492 200M492 200L500 224M500 224L504 248M504 248L508 272M508 272L508 296M508 296L504 320M504 320L500 344M500 344L492 368M492 368L484 388M484 388L472 408M472 408L456 428M456 428L440 444M440 444L424 456M424 456L408 468M408 468L392 476M392 476L376 484M376 484L360 488M360 488L344 492M344 492L328 492M328 492L312 492M312 492L296 492M296 492L280 492M280 492L264 488M264 488L248 484M248 484L232 480M232 480L216 472M216 472L200 464M200 464L184 456M184 456L172 444M172 444L160 432M160 432L148 416M148 416L140 400M140 400L132 384M132 384L128 368M128 368L124 352M124 352L120 336M120 336L116 320M116 320L116 304M116 304L116 288M116 288L116 272M116 272L120 256M120 256L124 240M124 240L128 224M128 224L132 212M132 212L140 196M140 196L148 180M148 180L160 164M160 164L172 152M172 152L184 140M184 140L200 128M200 128L216 120M216 120L232 112M232 112L248 104M248 104L264 100M264 100L280 96M280 96L296 92M296 92L312 92M312 92L328 92M328 92L344 92M344 92L360 96M360 96L376 100M376 100L392 104M392 104L408 112M408 112L424 120M424 120L440 132M440 132L456 144M456 144L472 160M472 160L484 180M484 180L492 200M492 200L500 224M500 224L504 248M504 248L508 272M508 272L508 296M508 296L504 320M504 320L500 344M500 344L492 368M492 368L484 388M484 388L472 408M472 408L456 428M456 428L440 444M440 444L424 456M424 456L408 468M408 468L392 476M392 476L376 484M376 484L360 488M360 488L344 492M344 492L328 492M328 492L312 492M312 492L296 492M296 492L280 492M280 492L264 488M264 488L248 484M248 484L232 480M232 480L216 472M216 472L200 464M200 464L184 456M184 456L172 444M172 444L160 432M160 432L148 416M148 416L140 400M140 400L132 384M132 384L128 368M128 368L124 352M124 352L120 336M120 336L116 320M116 320L116 304M116 304L116 288M116 288L116 272M116 272L120 256M120 256L124 240M124 240L128 224M128 224L132 212M132 212L140 196M140 196L148 180M148 180L160 164M160 164L172 152M172 152L184 140M184 140L200 128M200 128L216 120M216 120L232 112M232 112L248 104M248 104L264 100M264 100L280 96M280 96L296 92M296 92L312 92M312 92L328 92M328 92L344 92M344 92L360 96M360 96L376 100M376 100L392 104" stroke="#CBD5E1" stroke-width="2" stroke-linecap="round"/>
</svg>
